{"title":"Once Upon a Time in Shanghai 2014 WEB-DL XviD AC3-RARBG","uid":10149909,"size":1144802169,"categoryP":"video","categoryS":"movies","magnet":"?xt=urn:btih:297711a5e291ba4846bb0ceab608df6a99624a0d&amp;dn=Once+Upon+a+Time+in+Shanghai+2014+WEB-DL+XviD+AC3-RARBG&amp;tr=udp%3A%2F%2Ftracker.openbittorrent.com%3A80&amp;tr=udp%3A%2F%2Fopen.demonii.com%3A1337&amp;tr=udp%3A%2F%2Ftracker.coppersurfer.tk%3A6969&amp;tr=udp%3A%2F%2Fexodus.desync.com%3A6969","seeders":1,"leechers":0,"uploader":".BONE.","files":3,"time":1400091276,"description":" &lt;a href=&quot;http://www.imdb.com/title/tt2290567/&quot; rel=&quot;nofollow&quot; target=&quot;_NEW&quot;&gt;http://www.imdb.com/title/tt2290567/&lt;/a&gt;\n\nSubtitles: English subtitles included in movie dir\n\nInfo:\nFormat : AVI\nFormat/Info : Audio Video Interleave\nFile size : 1.07 GiB\nDuration : 1h 31mn\nOverall bit rate : 1 675 Kbps\nMovie name : RARBG.COM - Once.Upon.a.Time.in.Shanghai.2014.WEB-DL.XviD.AC3-RARBG\nWriting library : VirtualDub build 35491/release\nComment : RARBG.COM - Once.Upon.a.Time.in.Shanghai.2014.WEB-DL.XviD.AC3-RARBG\n\nVideo\nID : 0\nFormat : MPEG-4 Visual\nFormat profile : Simple@L5\nFormat settings, BVOP : No\nFormat settings, QPel : No\nFormat settings, GMC : No warppoints\nFormat settings, Matrix : Default (H.263)\nCodec ID : XVID\nCodec ID/Hint : XviD\nDuration : 1h 31mn\nBit rate : 1 473 Kbps\nWidth : 720 pixels\nHeight : 300 pixels\nDisplay aspect ratio : 2.40:1\nFrame rate : 25.000 fps\nColor space : YUV\nChroma subsampling : 4:2:0\nBit depth : 8 bits\nScan type : Progressive\nCompression mode : Lossy\nBits/(Pixel*Frame) : 0.273\nStream size : 960 MiB (88%)\nWriting library : Lavc55.61.100\n\nAudio\nID : 1\nFormat : AC-3\nFormat/Info : Audio Coding 3\nMode extension : CM (complete main)\nFormat settings, Endianness : Big\nCodec ID : 2000\nDuration : 1h 31mn\nBit rate mode : Constant\nBit rate : 192 Kbps\nChannel(s) : 2 channels\nChannel positions : Front: L R\nSampling rate : 44.1 KHz\nBit depth : 16 bits\nCompression mode : Lossy\nStream size : 125 MiB (11%)\nAlignment : Aligned on interleaves\nInterleave, duration : 35 ms (0.87 video frame)\nInterleave, preload duration : 521 ms","torrent":{"xt":"urn:btih:297711a5e291ba4846bb0ceab608df6a99624a0d","amp;dn":"Once+Upon+a+Time+in+Shanghai+2014+WEB-DL+XviD+AC3-RARBG","amp;tr":["udp%3A%2F%2Ftracker.openbittorrent.com%3A80","udp%3A%2F%2Fopen.demonii.com%3A1337","udp%3A%2F%2Ftracker.coppersurfer.tk%3A6969","udp%3A%2F%2Fexodus.desync.com%3A6969"],"infoHash":"297711a5e291ba4846bb0ceab608df6a99624a0d","infoHashBuffer":{"type":"Buffer","data":[41,119,17,165,226,145,186,72,70,187,12,234,182,8,223,106,153,98,74,13]},"announce":[],"urlList":[]}}